{
  "accessors": [
    {
      "bufferView": 2,
      "componentType": 5126,
      "count": 580,
      "max": [
        0.8522300124168396,
        0.25855401158332825,
        2.7940170764923096
      ],
      "min": [
        -0.8522300124168396,
        -0.2247059941291809,
        -0.0006520000169984996
      ],
      "type": "VEC3"
    },
    {
      "bufferView": 2,
      "byteOffset": 6960,
      "componentType": 5126,
      "count": 580,
      "max": [
        1.0,
        0.999764621257782,
        0.999995231628418
      ],
      "min": [
        -0.9989594221115112,
        -0.9999520778656006,
        -0.9994387626647949
      ],
      "type": "VEC3"
    },
    {
      "bufferView": 1,
      "componentType": 5126,
      "count": 580,
      "max": [
        0.9960939884185791,
        0.9960939884185791
      ],
      "min": [
        0.0039059999398887157,
        0.0039059999398887157
      ],
      "type": "VEC2"
    },
    {
      "bufferView": 0,
      "componentType": 5125,
      "count": 1926,
      "type": "SCALAR"
    }
  ],
  "asset": {
    "extras": {
      "author": "BitHack (https://sketchfab.com/bithack)",
      "license": "CC-BY-4.0 (http://creativecommons.org/licenses/by/4.0/)",
      "source": "https://sketchfab.com/3d-models/lowpoly-ps1-basemesh-male-unwrapped-segmented-d214c630e7524a5fb394ce4fc963a3c4",
      "title": "Lowpoly PS1 Basemesh Male, Unwrapped, Segmented"
    },
    "generator": "Sketchfab-12.67.0",
    "version": "2.0"
  },
  "bufferViews": [
    {
      "buffer": 0,
      "byteLength": 7704,
      "name": "floatBufferViews",
      "target": 34963
    },
    {
      "buffer": 0,
      "byteLength": 4640,
      "byteOffset": 7704,
      "byteStride": 8,
      "name": "floatBufferViews",
      "target": 34962
    },
    {
      "buffer": 0,
      "byteLength": 13920,
      "byteOffset": 12344,
      "byteStride": 12,
      "name": "floatBufferViews",
      "target": 34962
    }
  ],
  "buffers": [
    {
      "byteLength": 26264,
      "uri": "scene.bin"
    }
  ],
  "images": [
    {
      "uri": "textures/Material.001_baseColor.png"
    }
  ],
  "materials": [
    {
      "name": "Material.001",
      "pbrMetallicRoughness": {
        "baseColorTexture": {
          "index": 0
        },
        "metallicFactor": 0.0
      }
    }
  ],
  "meshes": [
    {
      "name": "Object_0",
      "primitives": [
        {
          "attributes": {
            "NORMAL": 1,
            "POSITION": 0,
            "TEXCOORD_0": 2
          },
          "indices": 3,
          "material": 0,
          "mode": 4
        }
      ]
    }
  ],
  "nodes": [
    {
      "children": [
        1
      ],
      "matrix": [
        1.0,
        0.0,
        0.0,
        0.0,
        0.0,
        2.220446049250313e-16,
        -1.0,
        0.0,
        0.0,
        1.0,
        2.220446049250313e-16,
        0.0,
        0.0,
        0.0,
        0.0,
        1.0
      ],
      "name": "Sketchfab_model"
    },
    {
      "children": [
        2
      ],
      "name": "man2_fin.obj.cleaner.materialmerger.gles"
    },
    {
      "mesh": 0,
      "name": "Object_2"
    }
  ],
  "samplers": [
    {
      "magFilter": 9728,
      "minFilter": 9728,
      "wrapS": 10497,
      "wrapT": 10497
    }
  ],
  "scene": 0,
  "scenes": [
    {
      "name": "Sketchfab_Scene",
      "nodes": [
        0
      ]
    }
  ],
  "textures": [
    {
      "sampler": 0,
      "source": 0
    }
  ]
}
